{"title":"Stander.2003.DVDRip.720p.x264.Iou1","uid":8872218,"size":1467960480,"categoryP":"video","categoryS":"hd___movies","magnet":"?xt=urn:btih:8b84895a28d63d88357f990f0839a11d66e17ee5&amp;dn=Stander.2003.DVDRip.720p.x264.Iou1&amp;tr=udp%3A%2F%2Ftracker.openbittorrent.com%3A80&amp;tr=udp%3A%2F%2Fopen.demonii.com%3A1337&amp;tr=udp%3A%2F%2Ftracker.coppersurfer.tk%3A6969&amp;tr=udp%3A%2F%2Fexodus.desync.com%3A6969","seeders":2,"leechers":1,"uploader":"jaybee211","files":-1,"time":1378095012,"description":"Genre                                    : Action/Crime\nFormat                                   : MPEG-4\nFormat profile                           : Base Media / Version 2\nCodec ID                                 : mp42\nFile size                                : 1.37 GiB\nDuration                                 : 1h 52mn\nOverall bit rate mode                    : Variable\nOverall bit rate                         : 1 739 Kbps\nVideo\nID                                       : 1\nFormat                                   : AVC\nFormat/Info                              : Advanced Video Codec\nFormat profile                           : &lt;a class=&quot;__cf_email__&quot; href=&quot;/cdn-cgi/l/email-protection&quot; data-cfemail=&quot;0a42636d624a4639243b&quot;&gt;[email&amp;#160;protected]&lt;/a&gt;&lt;script cf-hash='f9e31' type=&quot;text/javascript&quot;&gt;\n/* &lt;![CDATA[ */!function(){try{var t=&quot;currentScript&quot;in document?document.currentScript:function(){for(var t=document.getElementsByTagName(&quot;script&quot;),e=t.length;e--;)if(t[e].getAttribute(&quot;cf-hash&quot;))return t[e]}();if(t&amp;&amp;t.previousSibling){var e,r,n,i,c=t.previousSibling,a=c.getAttribute(&quot;data-cfemail&quot;);if(a){for(e=&quot;&quot;,r=parseInt(a.substr(0,2),16),n=2;a.length-n;n+=2)i=parseInt(a.substr(n,2),16)^r,e+=String.fromCharCode(i);e=document.createTextNode(e),c.parentNode.replaceChild(e,c)}}}catch(u){}}();/* ]]&gt; */&lt;/script&gt;\nFormat settings, CABAC                   : Yes\nFormat settings, ReFrames                : 4 frames\nCodec ID                                 : avc1\nCodec ID/Info                            : Advanced Video Coding\nDuration                                 : 1h 52mn\nBit rate mode                            : Variable\nBit rate                                 : 1 515 Kbps\nMaximum bit rate                         : 10.4 Mbps\nWidth                                    : 1 280 pixels\nHeight                                   : 700 pixels\nDisplay aspect ratio                     : 1.85:1\nFrame rate mode                          : Constant\nFrame rate                               : 25.000 fps\nColor space                              : YUV\nChroma subsampling                       : 4:2:0\nBit depth                                : 8 bits\nScan type                                : Progressive\nBits/(Pixel*Frame)                       : 0.068\nStream size                              : 1.19 GiB (87%)\nLanguage                                 : English\n\nAudio\nID                                       : 2\nFormat                                   : AAC\nFormat/Info                              : Advanced Audio Codec\nFormat profile                           : LC\nCodec ID                                 : 40\nDuration                                 : 1h 52mn\nBit rate mode                            : Variable\nBit rate                                 : 220 Kbps\nMaximum bit rate                         : 253 Kbps\nChannel(s)                               : 6 channels\nChannel positions                        : Front: L C R, Side: L R, LFE\nSampling rate                            : 48.0 KHz\nCompression mode                         : Lossy\nDelay relative to video                  : 40ms\nStream size                              : 177 MiB (13%)\nLanguage                                 : English\nSubtitles                                : English Hardcoded When Needed\n\nIMDB. &lt;a href=&quot; http://www.imdb.com/title/tt0326208/&quot; rel=&quot;nofollow&quot; target=&quot;_NEW&quot;&gt; http://www.imdb.com/title/tt0326208/&lt;/a&gt;\n\nStoryline.\nIn the early 1980's, a white police officer (Andres Stander, played by Thomas Jane) in Johannesburg suffers a crisis of conscience due to his involvement in apartheid and becomes a notorious bank robber on the run. Then from 1983 to 1984, the &quot;Stander gang&quot; (Stander, Alan Heyl &amp; Patrick McCall) rob as many as four banks a day. \n\nScreens. &lt;a href=&quot; http://bayimg.com/capeKAaEf&quot; rel=&quot;nofollow&quot; target=&quot;_NEW&quot;&gt; http://bayimg.com/capeKAaEf&lt;/a&gt;\n\n         &lt;a href=&quot; http://bayimg.com/capelaaEF&quot; rel=&quot;nofollow&quot; target=&quot;_NEW&quot;&gt; http://bayimg.com/capelaaEF&lt;/a&gt;\n\n         &lt;a href=&quot; http://bayimg.com/CaPEMAaef&quot; rel=&quot;nofollow&quot; target=&quot;_NEW&quot;&gt; http://bayimg.com/CaPEMAaef&lt;/a&gt;\n\n         &lt;a href=&quot; http://bayimg.com/cAPENaAEf&quot; rel=&quot;nofollow&quot; target=&quot;_NEW&quot;&gt; http://bayimg.com/cAPENaAEf&lt;/a&gt;\n\n         &lt;a href=&quot; http://bayimg.com/cAPEoAAEf&quot; rel=&quot;nofollow&quot; target=&quot;_NEW&quot;&gt; http://bayimg.com/cAPEoAAEf&lt;/a&gt;\n\n         &lt;a href=&quot; http://bayimg.com/daPeAAAeF&quot; rel=&quot;nofollow&quot; target=&quot;_NEW&quot;&gt; http://bayimg.com/daPeAAAeF&lt;/a&gt;\n\nEnjoy.","torrent":{"xt":"urn:btih:8b84895a28d63d88357f990f0839a11d66e17ee5","amp;dn":"Stander.2003.DVDRip.720p.x264.Iou1","amp;tr":["udp%3A%2F%2Ftracker.openbittorrent.com%3A80","udp%3A%2F%2Fopen.demonii.com%3A1337","udp%3A%2F%2Ftracker.coppersurfer.tk%3A6969","udp%3A%2F%2Fexodus.desync.com%3A6969"],"infoHash":"8b84895a28d63d88357f990f0839a11d66e17ee5","infoHashBuffer":{"type":"Buffer","data":[139,132,137,90,40,214,61,136,53,127,153,15,8,57,161,29,102,225,126,229]},"announce":[],"urlList":[]}}